<svg xmlns="http://www.w3.org/2000/svg" viewBox="0 0 256 256"><defs><style>.cls-1{isolation:isolate;}.cls-2{fill:#050000;}.cls-3,.cls-4{fill:#007f30;}.cls-4{mix-blend-mode:multiply;opacity:0.19;}.cls-5{fill:#fff;}.cls-6{fill:#f38706;}.cls-7{fill:#000103;}.cls-8{fill:#ff361c;}.cls-9{opacity:0.65;}.cls-10{opacity:0.3;}.cls-11{opacity:0.1;}</style></defs><g class="cls-1"><g id="Layer_1" data-name="Layer 1"><path class="cls-2" d="M128,248.37c-60.09,0-109-43.32-109-96.56A86.89,86.89,0,0,1,30.7,108.25C41.92,87.11,63,72.86,78.75,64.63a183.4,183.4,0,0,1,24.82-10.72,30.37,30.37,0,0,1-1.69-15.3l1.92-16,7.85,14.07a32.36,32.36,0,0,0,6.75,7.87c-.62-6.87.31-15.47,6.22-23L135.46,7.63,134,25.18c0,.53-.74,13.72,16.83,24,21,12.3,36.88,21.77,37,21.85l.22.13,1,.58c30,18,48,47.93,48,80.05C237,205.05,188.09,248.37,128,248.37Z"/><path class="cls-2" d="M128,246.65c-59.14,0-107.26-42.55-107.26-94.84a85.17,85.17,0,0,1,11.46-42.7c11-20.8,31.84-34.83,47.35-42.95A182.8,182.8,0,0,1,106,54.93c-1.74-3.33-3.27-8.55-2.36-16.11l1.29-10.72,5.26,9.43c0,.08,4,7,10.49,10.65-1.2-6.6-1.46-16.87,5.35-25.6l7.27-9.31-1,11.76c0,.58-.81,14.82,17.68,25.66,20.79,12.18,36.84,21.75,37,21.85l.21.12,1,.58c29.51,17.69,47.14,47.06,47.14,78.57C235.26,204.1,187.14,246.65,128,246.65Z"/><path class="cls-3" d="M231.75,151.81c0,50.44-46.45,91.33-103.75,91.33h-1.14c-56.77-.54-102.6-41.22-102.6-91.32a82.31,82.31,0,0,1,11-41C47.9,87,73.88,72,92,64.08a155.19,155.19,0,0,1,19.67-7.25s-6.16-4.76-4.61-17.59c0,0,7.08,12.69,18.66,14.38,0,0-6.68-16.47,3-28.88,0,0-1.43,16.76,19.4,29C165.78,64,180.89,73,185.13,75.55a2,2,0,0,1,.19.12c.65.37,1,.58,1,.58C213.74,92.69,231.75,120.4,231.75,151.81Z"/><path class="cls-4" d="M231.75,151.81c0,50.44-46.45,91.33-103.75,91.33h-1.14c11.42-5.95,24.57-8.12,36.59-12.93,13.1-5.23,26-15.59,27-29.68.64-9.81-4.77-19.31-4-29.11.65-8,5.31-15.14,6.42-23.06,2.19-15.47-9.7-29.74-23.33-37.36s-29.31-10.8-43.34-17.66a89.6,89.6,0,0,1-21.83-15.12A95.75,95.75,0,0,1,92,64.08a155.19,155.19,0,0,1,19.67-7.25s-6.16-4.76-4.61-17.59c0,0,7.08,12.69,18.66,14.38,0,0-6.68-16.47,3-28.88,0,0-1.43,16.76,19.4,29C165.78,64,180.89,73,185.13,75.55a2,2,0,0,1,.19.12c.65.37,1,.58,1,.58C213.74,92.69,231.75,120.4,231.75,151.81Z"/><ellipse class="cls-2" cx="83.92" cy="147.87" rx="11.06" ry="12.16"/><ellipse class="cls-5" cx="81.07" cy="144.89" rx="3.53" ry="4.3"/><path class="cls-6" d="M168.23,190.8c-2.75,55.62-59.87,40.85-64.6,11.5"/><path class="cls-7" d="M137.53,228.93c-16.24,0-32-12-34.39-26.55l1-.16c2.34,14.57,18.76,26.56,35.14,25.66,16.71-.93,27.35-14.79,28.46-37.1l1,.05c-1.13,22.87-12.13,37.09-29.41,38C138.72,228.91,138.13,228.93,137.53,228.93Z"/><path class="cls-7" d="M153.64,200.19c-3.45,22.92-31.55,23.7-36,3.82"/><path class="cls-8" d="M148.32,212c-7.18,8.05-19.52,8.15-26.37.61C129.13,204.61,141.47,204.48,148.32,212Z"/><path class="cls-7" d="M134.68,218.7a17.69,17.69,0,0,1-13.1-5.71l-.3-.34.3-.33a18.84,18.84,0,0,1,14-6.33h.07a17.65,17.65,0,0,1,13.09,5.71l.3.34-.3.33a18.83,18.83,0,0,1-13.93,6.33Zm-12.05-6a16.92,16.92,0,0,0,12.12,5A17.83,17.83,0,0,0,147.64,212a16.75,16.75,0,0,0-12.11-5A17.83,17.83,0,0,0,122.63,212.65Z"/><path class="cls-6" d="M67,185.11c-.3-.39-.58-.79-.85-1.19a10,10,0,0,1,.05-11.56c2.72-3.79,7.67-5.63,16.32-2.25,11.7,4.39,22.9,4.93,33-2.74,4.74-2.66,9.4-3,14-.89a21,21,0,0,1,5.3,3.59c6.05,5.73,14.05,9,24.61,9.14,4.83,0,9,3,9.43,6.82C172,210.5,86.14,210.6,67,185.11Z"/><path class="cls-7" d="M126.72,204.74c-23.51,0-50.23-6.12-60.17-19.33-.31-.4-.59-.8-.87-1.22a10.52,10.52,0,0,1,.06-12.12c3.37-4.68,9.06-5.49,16.91-2.43,13.25,5,23.59,4.12,32.54-2.67,5-2.8,9.84-3.1,14.5-.95a21.9,21.9,0,0,1,5.42,3.67c6.31,6,14.25,8.92,24.29,9,5.14.05,9.4,3.17,9.92,7.26.74,5.81-3.25,10.66-11.53,14C150.11,203.11,138.84,204.74,126.72,204.74ZM74.4,168.84a9.08,9.08,0,0,0-7.84,3.81,9.43,9.43,0,0,0,0,11c.26.4.53.78.83,1.17h0c14.84,19.7,67.76,23.32,90.06,14.25,5.45-2.22,11.77-6.27,10.92-13-.46-3.6-4.3-6.34-8.94-6.38-10.31-.1-18.47-3.13-25-9.28a20.49,20.49,0,0,0-5.16-3.5c-4.35-2-8.9-1.72-13.54.87-9.19,7-19.84,7.88-33.44,2.78A22.13,22.13,0,0,0,74.4,168.84Z"/><g class="cls-9"><path class="cls-5" d="M138.46,173.07l-1,1.34a20.36,20.36,0,0,0-4.17-2.62c-4.58-2.12-9.25-1.76-14,.89-10.11,7.67-21.32,7.13-33,2.74-8.65-3.38-13.59-1.54-16.32,2.26a9.7,9.7,0,0,0-1,9.69A25,25,0,0,1,67,185.11c-.3-.39-.58-.79-.85-1.2a10,10,0,0,1,.05-11.55c2.72-3.78,7.67-5.62,16.31-2.25,11.72,4.38,22.92,4.93,33-2.74,4.74-2.66,9.4-3,14-.89a21.13,21.13,0,0,1,5.3,3.59A31.09,31.09,0,0,0,138.46,173.07Z"/></g><path class="cls-7" d="M126.81,206.77c-25,0-53.31-6.9-62.81-21.49a12.49,12.49,0,0,1,.12-14.38c2.72-3.79,8.28-7.41,19.26-3.12,12.52,4.69,22.25,3.93,30.6-2.41a2.9,2.9,0,0,1,.29-.19c7.59-4.24,15.26-3.2,22.18,3,6,5.65,13.45,8.42,23,8.5,6.14.06,11.25,3.93,11.9,9h0c.52,4.09-.63,11.7-14.19,16.68C149.23,205.29,138.39,206.77,126.81,206.77ZM74.37,170.84c-4,0-5.56,2.11-6.19,3a7.49,7.49,0,0,0,0,8.73c5.48,8.43,19.71,14.92,39,17.8,17.68,2.64,36.59,1.6,48.17-2.66,5.41-2,11.69-5.56,11-11.35h0c-.33-2.56-3.4-4.6-7-4.63-10.69-.1-19.54-3.4-26.31-9.83-5.31-4.77-10.48-5.55-16.2-2.41-9.69,7.27-21.23,8.25-35.27,3A20.18,20.18,0,0,0,74.37,170.84Z"/><g class="cls-10"><path class="cls-7" d="M67,185.11c.07-.43.12-.68.12-.68,11.4,15.27,66.63,14.12,78.66,4.92,3.15-2.4,1-6.67-3.34-6.7-18.37-.12-20.9-6.18-12.91-16.17a21,21,0,0,1,5.3,3.59c6.05,5.73,14.05,9,24.61,9.14,4.83,0,9,3,9.43,6.82C172,210.5,86.14,210.6,67,185.11Z"/></g><path class="cls-7" d="M137.45,230.93c-17.4,0-33.76-12.55-36.29-28.23a2.5,2.5,0,1,1,4.94-.8c2.2,13.63,17.67,24.83,33.05,24,15.83-.87,25.52-13.7,26.58-35.2a2.5,2.5,0,0,1,5,.25c-1.19,24-12.89,38.93-31.3,39.95C138.77,230.91,138.11,230.93,137.45,230.93Z"/><path class="cls-7" d="M134.67,220.7h-.15c-9.59-.08-17.18-6.42-19.36-16.15a2.5,2.5,0,1,1,4.88-1.09c2,9,9.07,12.19,14.52,12.23h.11c5.9,0,13.6-3.59,16-13.74a2.5,2.5,0,1,1,4.87,1.17C152.65,215.28,143,220.7,134.67,220.7Z"/><g class="cls-10"><path class="cls-7" d="M106.92,211.32s26.32,10.69,58.54-1.7l2.39-14.17c-18.46,7.44-40.13,9.48-64.07,7.65A25.61,25.61,0,0,0,106.92,211.32Z"/></g><path class="cls-7" d="M174.46,141.55a61.83,61.83,0,0,0-6.85,1.53,41.85,41.85,0,0,0-6.32,2.39c-1,.45-1.94,1-2.9,1.54l-1.36.89c-.22.16-.46.28-.67.45l-.64.5A29.88,29.88,0,0,0,151,153.3l-3.44-5a4.17,4.17,0,0,1,.5-.13l.43-.1.83-.14c.54-.09,1.08-.15,1.62-.2a24.78,24.78,0,0,1,3.22-.08,24.16,24.16,0,0,1,6.28,1.07,21.15,21.15,0,0,1,5.7,2.69,20.88,20.88,0,0,1,4.62,4,1.1,1.1,0,0,1-1.28,1.72l-.12-.06c-.86-.39-1.64-.86-2.48-1.22s-1.64-.73-2.49-1a24.79,24.79,0,0,0-5.08-1.19,24.29,24.29,0,0,0-5.11-.17c-.42,0-.84.08-1.26.11l-1.24.18c-.41.07-.82.14-1.22.24l-.57.14-.27.08-.19.06-.08,0a3.16,3.16,0,0,1-3.93-2.12,3.19,3.19,0,0,1,.56-2.89,28.58,28.58,0,0,1,5.83-5.74,27.15,27.15,0,0,1,3.46-2.18,29.28,29.28,0,0,1,3.76-1.57,27.82,27.82,0,0,1,7.83-1.45,23.53,23.53,0,0,1,7.8,1,1.1,1.1,0,0,1-.14,2.13Z"/><g class="cls-11"><ellipse class="cls-5" cx="70.74" cy="96.36" rx="19.83" ry="15.6" transform="matrix(0.82, -0.57, 0.57, 0.82, -42.1, 56.9)"/></g></g></g></svg>